<?xml version="1.0" encoding="UTF-8" standalone="no"?>
<!-- Created with Inkscape (http://www.inkscape.org/) -->

<svg
   xmlns:dc="http://purl.org/dc/elements/1.1/"
   xmlns:cc="http://creativecommons.org/ns#"
   xmlns:rdf="http://www.w3.org/1999/02/22-rdf-syntax-ns#"
   xmlns:svg="http://www.w3.org/2000/svg"
   xmlns="http://www.w3.org/2000/svg"
   xmlns:sodipodi="http://sodipodi.sourceforge.net/DTD/sodipodi-0.dtd"
   xmlns:inkscape="http://www.inkscape.org/namespaces/inkscape"
   width="210mm"
   height="297mm"
   viewBox="0 0 744.09448819 1052.3622047"
   id="svg2"
   version="1.1"
   inkscape:version="0.91 r13725"
   sodipodi:docname="logo.svg">
  <defs
     id="defs4">
    <clipPath
       id="clipPath8082"
       clipPathUnits="userSpaceOnUse">
      <path
         inkscape:connector-curvature="0"
         id="path8084"
         d="m 0,185.908 472.726,0 L 472.726,0 0,0 0,185.908 Z" />
    </clipPath>
  </defs>
  <sodipodi:namedview
     id="base"
     pagecolor="#ffffff"
     bordercolor="#666666"
     borderopacity="1.0"
     inkscape:pageopacity="0.0"
     inkscape:pageshadow="2"
     inkscape:zoom="1.4"
     inkscape:cx="243.93043"
     inkscape:cy="899.46137"
     inkscape:document-units="px"
     inkscape:current-layer="layer1"
     showgrid="false"
     inkscape:window-width="1920"
     inkscape:window-height="1017"
     inkscape:window-x="-8"
     inkscape:window-y="-8"
     inkscape:window-maximized="1" />
  <metadata
     id="metadata7">
    <rdf:RDF>
      <cc:Work
         rdf:about="">
        <dc:format>image/svg+xml</dc:format>
        <dc:type
           rdf:resource="http://purl.org/dc/dcmitype/StillImage" />
        <dc:title></dc:title>
      </cc:Work>
    </rdf:RDF>
  </metadata>
  <g
     inkscape:label="Calque 1"
     inkscape:groupmode="layer"
     id="layer1">
    <g
       id="g8086"
       transform="matrix(1.25,0,0,-1.25,82.59317,162.93726)">
      <path
         d="m 0,0 c 0,5.853 0,19.068 14.913,19.068 13.781,0 13.781,-11.611 13.781,-16.33 l 0,-8.496 -8.777,0 0,10.288 c 0,2.172 0,6.892 -5.476,6.892 -5.569,0 -5.569,-4.909 -5.569,-8.307 l 0,-36.815 c 0,-3.775 0,-7.74 5.381,-7.74 5.569,0 5.569,4.343 5.569,8.4 l 0,12.367 8.872,0 0,-11.234 c 0,-7.552 -1.981,-17.179 -14.63,-17.179 -4.909,0 -9.535,1.888 -11.988,5.947 C 0,-39.742 0,-35.682 0,-32.19 L 0,0 Z"
         style="fill:#040606;fill-opacity:1;fill-rule:nonzero;stroke:none"
         id="path8088"
         inkscape:connector-curvature="0" />
    </g>
    <path
       d="m 125.53442,179.81113 20.885,0 0,9.91125 -20.885,0 0,-9.91125 z"
       style="fill:#040606;fill-opacity:1;fill-rule:nonzero;stroke:none"
       id="path8090"
       inkscape:connector-curvature="0" />
    <g
       id="g8092"
       transform="matrix(1.25,0,0,-1.25,176.97367,139.81051)">
      <path
         d="m 0,0 0,-58.621 14.539,0 0,-8.117 -23.411,0 L -8.872,0 0,0 Z"
         style="fill:#040606;fill-opacity:1;fill-rule:nonzero;stroke:none"
         id="path8094"
         inkscape:connector-curvature="0" />
    </g>
    <g
       id="g8096"
       transform="matrix(1.25,0,0,-1.25,216.49454,155.62163)">
      <path
         d="m 0,0 c -0.283,-8.685 -0.283,-9.628 -0.472,-10.762 l -2.83,-22.938 7.928,0 -3.302,23.127 C 0.946,-8.024 0.852,-5.475 0.758,0 L 0,0 Z m 5.758,12.555 10.29,-66.644 -8.589,0 -1.701,12.272 -10.004,0 -1.509,-12.272 -8.497,0 9.346,66.644 10.664,0 z"
         style="fill:#040606;fill-opacity:1;fill-rule:nonzero;stroke:none"
         id="path8098"
         inkscape:connector-curvature="0" />
    </g>
    <g
       id="g8100"
       transform="matrix(1.25,0,0,-1.25,266.39754,162.58326)">
      <path
         d="m 0,0 c 0,5.758 0,9.628 2.454,13.405 3.116,5.002 8.117,5.474 10.95,5.474 11.894,0 11.894,-9.723 11.894,-14.632 l 0,-6.985 -8.12,0 0,7.458 c 0,3.776 -0.189,6.797 -4.057,6.797 -4.437,0 -4.437,-4.059 -4.437,-7.364 l 0,-38.325 c 0,-4.344 0,-8.023 4.342,-8.023 4.438,0 4.438,3.963 4.438,5.947 l 0,15.103 -5.381,0 0,8.119 14.064,0 0,-35.494 -5.287,0 -0.755,3.114 c -1.226,-1.509 -3.116,-4.152 -8.022,-4.152 C 0,-49.558 0,-37.758 0,-32.945 L 0,0 Z"
         style="fill:#040606;fill-opacity:1;fill-rule:nonzero;stroke:none"
         id="path8102"
         inkscape:connector-curvature="0" />
    </g>
    <g
       id="g8104"
       transform="matrix(1.25,0,0,-1.25,313.34879,139.92826)">
      <path
         d="m 0,0 21.992,0 0,-8.401 -13.026,0 0,-19.446 11.706,0 0,-8.213 -11.706,0 0,-22.183 13.121,0 0,-8.401 L 0,-66.644 0,0 Z"
         style="fill:#040606;fill-opacity:1;fill-rule:nonzero;stroke:none"
         id="path8106"
         inkscape:connector-curvature="0" />
    </g>
    <g
       id="g8108"
       transform="matrix(1.25,0,0,-1.25,363.72229,149.95876)">
      <path
         d="m 0,0 0,-20.577 4.157,0 c 4.437,0 4.626,1.981 4.626,13.026 C 8.783,-0.188 8.309,0 4.534,0 L 0,0 Z m -8.869,8.024 14.347,0 c 10.761,0 11.985,-2.926 11.985,-16.141 0,-11.705 -0.28,-16.52 -7.456,-16.425 l 0,-0.378 c 6.324,-0.755 7.176,-4.342 7.176,-13.217 l 0,-7.267 c 0,-8.023 0.189,-9.252 1.699,-13.215 l -9.155,0 c -0.755,3.868 -1.418,7.174 -1.418,13.97 l 0,4.72 c 0,2.547 -0.098,7.835 -1.133,10.005 -1.04,1.984 -2.075,1.984 -7.268,1.984 l 0,-30.679 -8.777,0 0,66.643 z"
         style="fill:#040606;fill-opacity:1;fill-rule:nonzero;stroke:none"
         id="path8110"
         inkscape:connector-curvature="0" />
    </g>
    <g
       id="g8112"
       transform="matrix(1.25,0,0,-1.25,410.67667,155.62163)">
      <path
         d="M 0,0 C -0.28,-8.685 -0.28,-9.628 -0.469,-10.762 L -3.3,-33.7 l 7.926,0 -3.3,23.127 C 0.949,-8.024 0.852,-5.475 0.76,0 L 0,0 Z m 5.758,12.555 10.293,-66.644 -8.589,0 -1.704,12.272 -10.001,0 -1.51,-12.272 -8.497,0 9.344,66.644 10.664,0 z"
         style="fill:#040606;fill-opacity:1;fill-rule:nonzero;stroke:none"
         id="path8114"
         inkscape:connector-curvature="0" />
    </g>
    <g
       id="g8116"
       transform="matrix(1.25,0,0,-1.25,450.43379,139.92826)">
      <path
         d="m 0,0 9.915,-42.667 c 0.566,-2.55 0.943,-4.437 1.412,-6.607 l 0.567,0 c -0.377,3.113 -0.755,6.23 -0.944,9.439 l -0.378,6.23 L 10.195,0 l 8.211,0 0,-66.644 -9.72,0 -10.951,49.936 -0.566,0 0.475,-5.758 0.377,-5.758 0.754,-38.42 -8.211,0 L -9.436,0 0,0 Z"
         style="fill:#040606;fill-opacity:1;fill-rule:nonzero;stroke:none"
         id="path8118"
         inkscape:connector-curvature="0" />
    </g>
    <g
       id="g8120"
       transform="matrix(1.25,0,0,-1.25,486.38842,162.93726)">
      <path
         d="m 0,0 c 0,5.853 0,19.068 14.914,19.068 13.78,0 13.78,-11.611 13.78,-16.33 l 0,-8.496 -8.777,0 0,10.288 c 0,2.172 0,6.892 -5.473,6.892 -5.569,0 -5.569,-4.909 -5.569,-8.307 l 0,-36.815 c 0,-3.775 0,-7.74 5.381,-7.74 5.569,0 5.569,4.343 5.569,8.4 l 0,12.367 8.869,0 0,-11.234 c 0,-7.552 -1.978,-17.179 -14.627,-17.179 -4.912,0 -9.538,1.888 -11.991,5.947 C 0,-39.742 0,-35.682 0,-32.19 L 0,0 Z"
         style="fill:#040606;fill-opacity:1;fill-rule:nonzero;stroke:none"
         id="path8122"
         inkscape:connector-curvature="0" />
    </g>
    <g
       id="g8124"
       transform="matrix(1.25,0,0,-1.25,534.49629,139.92826)">
      <path
         d="m 0,0 21.992,0 0,-8.401 -13.026,0 0,-19.446 11.705,0 0,-8.213 -11.705,0 0,-22.183 13.123,0 0,-8.401 L 0,-66.644 0,0 Z"
         style="fill:#040606;fill-opacity:1;fill-rule:nonzero;stroke:none"
         id="path8126"
         inkscape:connector-curvature="0" />
    </g>
    <path
       d="m 82.17817,241.63738 55.48875,0 0,-7.975 -55.48875,0 0,7.975 z"
       style="fill:#040606;fill-opacity:1;fill-rule:nonzero;stroke:none"
       id="path8128"
       inkscape:connector-curvature="0" />
    <path
       d="m 82.17817,128.20488 55.48875,0 0,-7.975 -55.48875,0 0,7.975 z"
       style="fill:#040606;fill-opacity:1;fill-rule:nonzero;stroke:none"
       id="path8130"
       inkscape:connector-curvature="0" />
  </g>
</svg>
