<?xml version="1.0" encoding="UTF-8" standalone="no"?>
<!-- Created with Inkscape (http://www.inkscape.org/) -->

<svg
   xmlns:dc="http://purl.org/dc/elements/1.1/"
   xmlns:cc="http://creativecommons.org/ns#"
   xmlns:rdf="http://www.w3.org/1999/02/22-rdf-syntax-ns#"
   xmlns:svg="http://www.w3.org/2000/svg"
   xmlns="http://www.w3.org/2000/svg"
   xmlns:sodipodi="http://sodipodi.sourceforge.net/DTD/sodipodi-0.dtd"
   xmlns:inkscape="http://www.inkscape.org/namespaces/inkscape"
   width="172.289mm"
   height="54.025398mm"
   viewBox="0 0 610.47284 191.42858"
   id="svg2"
   version="1.1"
   inkscape:version="0.91 r13725"
   sodipodi:docname="logo-large.svg"
   inkscape:export-filename="C:\Projects\github\c-lagerance-theme\maquette\logo-large-crop.png"
   inkscape:export-xdpi="187.53"
   inkscape:export-ydpi="187.53">
  <defs
     id="defs4">
    <clipPath
       id="clipPath8082"
       clipPathUnits="userSpaceOnUse">
      <path
         inkscape:connector-curvature="0"
         id="path8084"
         d="m 0,185.908 472.726,0 L 472.726,0 0,0 0,185.908 Z" />
    </clipPath>
  </defs>
  <sodipodi:namedview
     id="base"
     pagecolor="#ffffff"
     bordercolor="#666666"
     borderopacity="1.0"
     inkscape:pageopacity="0.0"
     inkscape:pageshadow="2"
     inkscape:zoom="0.98994949"
     inkscape:cx="228.42101"
     inkscape:cy="210.7515"
     inkscape:document-units="px"
     inkscape:current-layer="layer1"
     showgrid="false"
     inkscape:window-width="1920"
     inkscape:window-height="1017"
     inkscape:window-x="-8"
     inkscape:window-y="-8"
     inkscape:window-maximized="1"
     fit-margin-top="0"
     fit-margin-left="0"
     fit-margin-right="0"
     fit-margin-bottom="0" />
  <metadata
     id="metadata7">
    <rdf:RDF>
      <cc:Work
         rdf:about="">
        <dc:format>image/svg+xml</dc:format>
        <dc:type
           rdf:resource="http://purl.org/dc/dcmitype/StillImage" />
        <dc:title></dc:title>
      </cc:Work>
    </rdf:RDF>
  </metadata>
  <g
     inkscape:label="Calque 1"
     inkscape:groupmode="layer"
     id="layer1"
     transform="translate(-66.810822,-430.46683)">
    <g
       id="g8124"
       transform="translate(49.904389,345.24747)">
      <path
         d="m 82.59317,162.93726 c 0,-7.31625 0,-23.835 18.64125,-23.835 17.22625,0 17.22625,14.51375 17.22625,20.4125 l 0,10.62 -10.97125,0 0,-12.86 c 0,-2.715 0,-8.615 -6.845,-8.615 -6.96125,0 -6.96125,6.13625 -6.96125,10.38375 l 0,46.01875 c 0,4.71875 0,9.675 6.72625,9.675 6.96125,0 6.96125,-5.42875 6.96125,-10.5 l 0,-15.45875 11.09,0 0,14.0425 c 0,9.44 -2.47625,21.47375 -18.2875,21.47375 -6.13625,0 -11.91875,-2.36 -14.985,-7.43375 -2.595,-4.24625 -2.595,-9.32125 -2.595,-13.68625 l 0,-40.2375 z"
         style="fill:#040606;fill-opacity:1;fill-rule:nonzero;stroke:none"
         id="path8088"
         inkscape:connector-curvature="0" />
      <path
         inkscape:connector-curvature="0"
         id="path8090"
         style="fill:#040606;fill-opacity:1;fill-rule:nonzero;stroke:none"
         d="m 125.53442,179.81113 20.885,0 0,9.91125 -20.885,0 0,-9.91125 z" />
      <path
         d="m 176.97367,139.81051 0,73.27625 18.17375,0 0,10.14625 -29.26375,0 0,-83.4225 11.09,0 z"
         style="fill:#040606;fill-opacity:1;fill-rule:nonzero;stroke:none"
         id="path8094"
         inkscape:connector-curvature="0" />
      <path
         d="m 216.49454,155.62163 c -0.35375,10.85625 -0.35375,12.035 -0.59,13.4525 l -3.5375,28.6725 9.91,0 -4.1275,-28.90875 c -0.4725,-3.18625 -0.59,-6.3725 -0.7075,-13.21625 l -0.9475,0 z m 7.1975,-15.69375 12.8625,83.305 -10.73625,0 -2.12625,-15.34 -12.505,0 -1.88625,15.34 -10.62125,0 11.6825,-83.305 13.33,0 z"
         style="fill:#040606;fill-opacity:1;fill-rule:nonzero;stroke:none"
         id="path8098"
         inkscape:connector-curvature="0" />
      <path
         d="m 266.39754,162.58326 c 0,-7.1975 0,-12.035 3.0675,-16.75625 3.895,-6.2525 10.14625,-6.8425 13.6875,-6.8425 14.8675,0 14.8675,12.15375 14.8675,18.29 l 0,8.73125 -10.15,0 0,-9.3225 c 0,-4.72 -0.23625,-8.49625 -5.07125,-8.49625 -5.54625,0 -5.54625,5.07375 -5.54625,9.205 l 0,47.90625 c 0,5.43 0,10.02875 5.4275,10.02875 5.5475,0 5.5475,-4.95375 5.5475,-7.43375 l 0,-18.87875 -6.72625,0 0,-10.14875 17.58,0 0,44.3675 -6.60875,0 -0.94375,-3.8925 c -1.5325,1.88625 -3.895,5.19 -10.0275,5.19 -15.10375,0 -15.10375,-14.75 -15.10375,-20.76625 l 0,-41.18125 z"
         style="fill:#040606;fill-opacity:1;fill-rule:nonzero;stroke:none"
         id="path8102"
         inkscape:connector-curvature="0" />
      <path
         d="m 313.34879,139.92826 27.49,0 0,10.50125 -16.2825,0 0,24.3075 14.6325,0 0,10.26625 -14.6325,0 0,27.72875 16.40125,0 0,10.50125 -27.60875,0 0,-83.305 z"
         style="fill:#040606;fill-opacity:1;fill-rule:nonzero;stroke:none"
         id="path8106"
         inkscape:connector-curvature="0" />
      <path
         d="m 363.72229,149.95876 0,25.72125 5.19625,0 c 5.54625,0 5.7825,-2.47625 5.7825,-16.2825 0,-9.20375 -0.5925,-9.43875 -5.31125,-9.43875 l -5.6675,0 z m -11.08625,-10.03 17.93375,0 c 13.45125,0 14.98125,3.6575 14.98125,20.17625 0,14.63125 -0.35,20.65 -9.32,20.53125 l 0,0.4725 c 7.905,0.94375 8.97,5.4275 8.97,16.52125 l 0,9.08375 c 0,10.02875 0.23625,11.565 2.12375,16.51875 l -11.44375,0 c -0.94375,-4.835 -1.7725,-8.9675 -1.7725,-17.4625 l 0,-5.9 c 0,-3.18375 -0.1225,-9.79375 -1.41625,-12.50625 -1.3,-2.48 -2.59375,-2.48 -9.085,-2.48 l 0,38.34875 -10.97125,0 0,-83.30375 z"
         style="fill:#040606;fill-opacity:1;fill-rule:nonzero;stroke:none"
         id="path8110"
         inkscape:connector-curvature="0" />
      <path
         d="m 410.67667,155.62163 c -0.35,10.85625 -0.35,12.035 -0.58625,13.4525 l -3.53875,28.6725 9.9075,0 -4.125,-28.90875 c -0.47125,-3.18625 -0.5925,-6.3725 -0.7075,-13.21625 l -0.95,0 z m 7.1975,-15.69375 12.86625,83.305 -10.73625,0 -2.13,-15.34 -12.50125,0 -1.8875,15.34 -10.62125,0 11.68,-83.305 13.33,0 z"
         style="fill:#040606;fill-opacity:1;fill-rule:nonzero;stroke:none"
         id="path8114"
         inkscape:connector-curvature="0" />
      <path
         d="m 450.43379,139.92826 12.39375,53.33375 c 0.7075,3.1875 1.17875,5.54625 1.765,8.25875 l 0.70875,0 c -0.47125,-3.89125 -0.94375,-7.7875 -1.18,-11.79875 l -0.4725,-7.7875 -0.47125,-42.00625 10.26375,0 0,83.305 -12.15,0 -13.68875,-62.42 -0.7075,0 0.59375,7.1975 0.47125,7.1975 0.9425,48.025 -10.26375,0 0,-83.305 11.795,0 z"
         style="fill:#040606;fill-opacity:1;fill-rule:nonzero;stroke:none"
         id="path8118"
         inkscape:connector-curvature="0" />
      <path
         d="m 486.38842,162.93726 c 0,-7.31625 0,-23.835 18.6425,-23.835 17.225,0 17.225,14.51375 17.225,20.4125 l 0,10.62 -10.97125,0 0,-12.86 c 0,-2.715 0,-8.615 -6.84125,-8.615 -6.96125,0 -6.96125,6.13625 -6.96125,10.38375 l 0,46.01875 c 0,4.71875 0,9.675 6.72625,9.675 6.96125,0 6.96125,-5.42875 6.96125,-10.5 l 0,-15.45875 11.08625,0 0,14.0425 c 0,9.44 -2.4725,21.47375 -18.28375,21.47375 -6.14,0 -11.9225,-2.36 -14.98875,-7.43375 -2.595,-4.24625 -2.595,-9.32125 -2.595,-13.68625 l 0,-40.2375 z"
         style="fill:#040606;fill-opacity:1;fill-rule:nonzero;stroke:none"
         id="path8122"
         inkscape:connector-curvature="0" />
      <path
         d="m 534.49629,139.92826 27.49,0 0,10.50125 -16.2825,0 0,24.3075 14.63125,0 0,10.26625 -14.63125,0 0,27.72875 16.40375,0 0,10.50125 -27.61125,0 0,-83.305 z"
         style="fill:#040606;fill-opacity:1;fill-rule:nonzero;stroke:none"
         id="path8126"
         inkscape:connector-curvature="0" />
      <path
         inkscape:connector-curvature="0"
         id="path8128"
         style="fill:#040606;fill-opacity:1;fill-rule:nonzero;stroke:none"
         d="m 82.17817,241.63738 55.48875,0 0,-7.975 -55.48875,0 0,7.975 z" />
      <path
         inkscape:connector-curvature="0"
         id="path8130"
         style="fill:#040606;fill-opacity:1;fill-rule:nonzero;stroke:none"
         d="m 82.17817,128.20488 55.48875,0 0,-7.975 -55.48875,0 0,7.975 z" />
    </g>
  </g>
</svg>
